<?xml version="1.0" encoding="UTF-8" standalone="no"?>
<svg
   xmlns:dc="http://purl.org/dc/elements/1.1/"
   xmlns:cc="http://creativecommons.org/ns#"
   xmlns:rdf="http://www.w3.org/1999/02/22-rdf-syntax-ns#"
   xmlns:svg="http://www.w3.org/2000/svg"
   xmlns="http://www.w3.org/2000/svg"
   id="svg8"
   version="1.1"
   viewBox="0 0 535.81614 403.03448"
   height="403.03448mm"
   width="535.81616mm">
  <defs
     id="defs2" />
  <metadata
     id="metadata5">
    <rdf:RDF>
      <cc:Work
         rdf:about="">
        <dc:format>image/svg+xml</dc:format>
        <dc:type
           rdf:resource="http://purl.org/dc/dcmitype/StillImage" />
        <dc:title></dc:title>
      </cc:Work>
    </rdf:RDF>
  </metadata>
  <path
     style="fill:#000000;stroke-width:0.9447791"
     d="m 299.17473,247.97053 -36.47602,-92.44475 -53.47733,84.25917 h -33.52739 l 74.68667,-120.60481 -8.3849,-23.835857 H 212.91453 V 66.942344 h 49.78136 l 57.17895,145.400556 25.13872,-8.18936 8.37734,28.16671 z"
     id="path21" />
  <path
     style="fill:none;stroke:#000000;stroke-width:32.12248993;stroke-opacity:0.97989951"
     d="m 406.65186,162.43871 c 0,80.85326 -65.53273,146.37843 -146.37844,146.37843 -80.84567,0 -146.38027,-65.52422 -146.38027,-146.37843 0,-80.84379 65.5327,-146.377465 146.38027,-146.377465 80.84478,0 146.37844,65.533675 146.37844,146.377465 z"
     id="path23" />
  <flowRoot
     xml:space="preserve"
     id="flowRoot34"
     style="font-style:normal;font-variant:normal;font-weight:normal;font-stretch:normal;font-size:40px;line-height:1.25;font-family:HalfLife2;-inkscape-font-specification:HalfLife2;letter-spacing:0px;word-spacing:0px;fill:#000000;fill-opacity:1;stroke:none"
     transform="matrix(0.26458333,0,0,0.26458333,-489.7059,608.75523)"><flowRegion
       id="flowRegion36"
       style="fill:#000000"><rect
         id="rect38"
         width="4868.6416"
         height="2073.9773"
         x="-1769.6871"
         y="1313.0029"
         style="fill:#000000" /></flowRegion><flowPara
       id="flowPara40" /></flowRoot>  <flowRoot
     xml:space="preserve"
     id="flowRoot42"
     style="font-style:normal;font-variant:normal;font-weight:normal;font-stretch:normal;font-size:40px;line-height:1.25;font-family:HL2EP1;-inkscape-font-specification:HL2EP1;letter-spacing:0px;word-spacing:0px;fill:#000000;fill-opacity:1;stroke:none"
     transform="matrix(0.26458333,0,0,0.26458333,-489.7059,608.75523)"><flowRegion
       id="flowRegion44"
       style="fill:#000000"><rect
         id="rect46"
         width="3106.9619"
         height="1113.0612"
         x="-784.74811"
         y="1633.3083"
         style="fill:#000000" /></flowRegion><flowPara
       id="flowPara48" /></flowRoot>  <path
     style="opacity:1;fill:#000000;fill-opacity:1;stroke:#ff0000;stroke-width:0;stroke-linejoin:miter;stroke-miterlimit:4;stroke-dasharray:none;stroke-opacity:1"
     d="m 5e-7,382.20407 v -18.67636 h 3.325221 3.32522 v 7.30814 7.30814 h 5.4533595 5.45336 v -7.30814 -7.30814 h 3.325221 3.325219 v 18.67636 18.67636 h -3.325219 -3.325221 v -8.12017 -8.12014 h -5.45336 -5.4533595 v 8.12014 8.12017 H 3.3252215 5e-7 Z"
     id="path145" />
  <path
     style="opacity:1;fill:#000000;fill-opacity:1;stroke:#ff0000;stroke-width:0;stroke-linejoin:miter;stroke-miterlimit:4;stroke-dasharray:none;stroke-opacity:1"
     d="m 83.677511,393.16146 c -2.040099,-5.4311 -3.723595,-9.8747 -3.741097,-9.8747 -0.01751,0 -2.47792,4.01946 -5.467589,8.93217 l -5.435757,8.93217 h -3.553945 c -3.251352,0 -3.538999,-0.0396 -3.378421,-0.4654 0.09654,-0.25598 3.538483,-6.12658 7.648772,-13.0458 l 7.473253,-12.58038 -0.787087,-2.45018 -0.787087,-2.45018 -3.108979,-0.0763 -3.10898,-0.0763 v -3.23948 -3.23946 h 5.291892 c 3.986977,0 5.323882,0.0834 5.421624,0.33835 0.07136,0.18608 2.729835,7.22016 5.90774,15.6313 3.177904,8.41111 5.804463,15.32203 5.836799,15.35758 0.03233,0.0356 1.167379,-0.31368 2.522318,-0.77606 1.354939,-0.46237 2.552633,-0.73505 2.661542,-0.60597 0.170322,0.20189 1.650651,5.23874 1.726209,5.87348 0.01477,0.12392 -2.5469,1.00411 -5.692557,1.95597 -3.145659,0.95188 -5.719379,1.73137 -5.719379,1.73223 0,8.1e-4 -1.669173,-4.44206 -3.709271,-9.87314 z"
     id="path147" />
  <path
     style="opacity:1;fill:#000000;fill-opacity:1;stroke:#ff0000;stroke-width:0;stroke-linejoin:miter;stroke-miterlimit:4;stroke-dasharray:none;stroke-opacity:1"
     d="m 138.60014,382.3754 v -18.54102 h 3.32521 3.32523 v 15.42829 15.4283 h 9.04459 9.04461 v 3.11273 3.11272 h -12.36981 -12.36983 z"
     id="path151" />
  <path
     style="opacity:1;fill:#000000;fill-opacity:1;stroke:#ff0000;stroke-width:0;stroke-linejoin:miter;stroke-miterlimit:4;stroke-dasharray:none;stroke-opacity:1"
     d="m 205.10454,382.3754 v -18.54102 h 9.84267 9.84264 v 3.11271 3.11273 h -6.51744 -6.51742 v 4.19542 4.19541 h 5.32034 5.32036 v 3.11274 3.11273 h -5.32036 -5.32034 v 8.12014 8.12016 h -3.32522 -3.32523 z"
     id="path153" />
  <path
     style="opacity:1;fill:#000000;fill-opacity:1;stroke:#ff0000;stroke-width:0;stroke-linejoin:miter;stroke-miterlimit:4;stroke-dasharray:none;stroke-opacity:1"
     d="m 262.29834,381.69871 v -3.24806 h 8.64554 8.64558 v 3.24806 3.24806 h -8.64558 -8.64554 z"
     id="path155" />
  <path
     style="opacity:1;fill:#000000;fill-opacity:1;stroke:#ff0000;stroke-width:0;stroke-linejoin:miter;stroke-miterlimit:4;stroke-dasharray:none;stroke-opacity:1"
     d="m 307.19416,382.25103 v -18.46951 h 3.2918 3.29178 v 15.40722 15.40719 h 8.9349 8.93489 v 3.06232 3.0623 h -12.22669 -12.22668 z"
     id="path169" />
  <path
     style="opacity:1;fill:#000000;fill-opacity:1;stroke:#ff0000;stroke-width:0;stroke-linejoin:miter;stroke-miterlimit:4;stroke-dasharray:none;stroke-opacity:1"
     d="m 381.23046,382.23548 v -18.56521 h 3.19774 3.19775 v 18.56521 18.56521 h -3.19775 -3.19774 z"
     id="path175" />
  <path
     style="opacity:1;fill:#000000;fill-opacity:1;stroke:#ff0000;stroke-width:0;stroke-linejoin:miter;stroke-miterlimit:4;stroke-dasharray:none;stroke-opacity:1"
     d="m 439.90405,382.32784 v -18.5652 h 9.87538 9.8754 v 3.15801 3.15798 h -6.58359 -6.58362 v 4.21068 4.21067 h 5.26689 5.26689 v 3.06231 3.06229 h -5.26689 -5.26689 v 8.13426 8.13422 h -3.2918 -3.29177 z"
     id="path183" />
  <path
     style="opacity:1;fill:#000000;fill-opacity:1;stroke:#ff0000;stroke-width:0;stroke-linejoin:miter;stroke-miterlimit:4;stroke-dasharray:none;stroke-opacity:1"
     d="m 501.03746,382.32784 v -18.5652 h 11.19212 11.19213 v 3.0623 3.06232 h -7.90034 -7.90032 v 4.21065 4.21067 h 6.86576 6.86577 v 3.15799 3.15801 h -6.86577 -6.86576 v 5.07194 5.07193 h 8.27653 8.27652 v 3.06231 3.0623 h -11.56832 -11.56832 z"
     id="path185" />
  <path
     style="opacity:1;fill:#000000;fill-opacity:1;stroke:#ff0000;stroke-width:0;stroke-linejoin:miter;stroke-miterlimit:4;stroke-dasharray:none;stroke-opacity:1"
     d="m 531.32106,366.74691 v -1.71708 h 1.04959 1.04961 l 0.20065,0.20511 0.20067,0.20513 0.01,0.0696 c 0.0101,0.0701 0.0307,0.1478 0.0718,0.26451 0.02,0.0567 0.0223,0.0748 0.0215,0.16968 -0.003,0.33437 -0.104,0.54698 -0.34608,0.72269 -0.15021,0.10902 -0.35386,0.18186 -0.50843,0.18186 -0.0292,0 -0.0531,0.003 -0.0531,0.007 0,0.0105 0.0572,0.10507 0.076,0.12538 0.009,0.0102 0.0317,0.0206 0.05,0.0235 0.0427,0.007 0.0927,0.0325 0.14003,0.0715 0.0205,0.017 0.0534,0.042 0.0732,0.0556 0.10278,0.0707 0.23119,0.26779 0.32863,0.50437 0.0202,0.0489 0.12716,0.25009 0.23783,0.447 0.11067,0.19691 0.20318,0.36327 0.20559,0.36966 0.004,0.0102 -0.0459,0.0116 -0.30616,0.0113 l -0.31054,-2.6e-4 -0.15888,-0.27254 c -0.0874,-0.14989 -0.1693,-0.29727 -0.18199,-0.3275 -0.0383,-0.0909 -0.10918,-0.23144 -0.16582,-0.32851 -0.0972,-0.16662 -0.31487,-0.44676 -0.37927,-0.48814 -0.0994,-0.0638 -0.25784,-0.0884 -0.56927,-0.0884 h -0.21985 v 0.75282 0.7528 h -0.25772 -0.25771 z m 1.51714,-0.23098 c 0.0719,-0.0162 0.15635,-0.0483 0.23276,-0.0888 0.0419,-0.0222 0.0818,-0.0546 0.14216,-0.11561 0.0951,-0.0962 0.14784,-0.17059 0.1755,-0.24804 0.0275,-0.0772 0.0252,-0.11738 -0.01,-0.16993 -0.0367,-0.0554 -0.0605,-0.12071 -0.0677,-0.18589 -0.003,-0.0315 -0.01,-0.0518 -0.0157,-0.0518 -0.0165,0 -0.0854,-0.0537 -0.16701,-0.13032 l -0.0774,-0.0726 h -0.60747 -0.60749 v 0.54211 0.54212 l 0.47176,-0.004 c 0.38383,-0.003 0.48259,-0.006 0.52996,-0.0171 z"
     id="path193" />
  <path
     style="opacity:1;fill:#000000;fill-opacity:1;stroke:#ff0000;stroke-width:0;stroke-linejoin:miter;stroke-miterlimit:4;stroke-dasharray:none;stroke-opacity:1"
     d="m 532.26917,369.84097 c -0.35423,-0.0592 -0.66775,-0.1752 -0.91762,-0.33957 -0.076,-0.0499 -0.20178,-0.11383 -0.27963,-0.14193 -0.23628,-0.0852 -0.36464,-0.17606 -0.62283,-0.4405 -0.40837,-0.41818 -0.56073,-0.68551 -0.68977,-1.21002 -0.0951,-0.38634 -0.11926,-0.59679 -0.11988,-1.04071 0,-0.45039 0.0291,-0.66611 0.14329,-1.03768 0.13377,-0.43546 0.41984,-0.9145 0.75662,-1.26702 0.16772,-0.17554 0.55329,-0.47397 0.72872,-0.564 0.19661,-0.10091 0.51555,-0.21015 0.78744,-0.26969 0.18952,-0.0414 0.32059,-0.0528 0.62751,-0.054 0.46227,-0.002 0.61009,0.0256 1.17822,0.21762 0.37544,0.12689 0.40044,0.13945 0.6466,0.32454 0.44652,0.33574 0.73956,0.6699 0.93623,1.06759 0.36194,0.73185 0.45876,1.49093 0.29521,2.31497 -0.0284,0.14325 -0.0757,0.32505 -0.10494,0.40399 -0.0899,0.24228 -0.39769,0.83412 -0.51346,0.98721 -0.21073,0.27862 -0.4694,0.47103 -0.77904,0.57942 -0.071,0.0249 -0.19531,0.0846 -0.27594,0.1327 -0.20174,0.12031 -0.49654,0.24129 -0.72929,0.29932 -0.25391,0.0632 -0.79896,0.0825 -1.06744,0.0378 z m 0.85358,-0.58942 c 0.41755,-0.0532 0.83415,-0.21436 1.20752,-0.46691 0.20114,-0.13608 0.46126,-0.41521 0.58169,-0.6243 0.19959,-0.34649 0.341,-0.86046 0.37106,-1.34855 0.0332,-0.53795 -0.10479,-1.12884 -0.37133,-1.59096 -0.13048,-0.22621 -0.45188,-0.54995 -0.67682,-0.68172 -0.0971,-0.0568 -0.23982,-0.14406 -0.31742,-0.19384 -0.24472,-0.157 -0.33609,-0.18771 -0.89351,-0.30031 -0.47869,-0.0966 -1.07612,0.025 -1.48128,0.30151 -0.0516,0.0354 -0.16283,0.0999 -0.2469,0.14337 -0.3316,0.17176 -0.57234,0.40972 -0.71432,0.70595 -0.049,0.10254 -0.12558,0.23773 -0.16985,0.30043 -0.17423,0.24677 -0.3151,0.66091 -0.34977,1.02848 -0.0392,0.4156 0.1181,1.01012 0.36408,1.37564 0.0355,0.0527 0.10337,0.1794 0.15106,0.28169 0.0934,0.20051 0.29855,0.44627 0.47651,0.57085 0.24424,0.17097 0.7119,0.40683 0.89195,0.44985 0.29067,0.0694 0.83791,0.0921 1.17733,0.0488 z"
     id="path195" />
</svg>
